HIERARCHY
ROOT Hips
{
	OFFSET 0.000000 0.000000 0.000000
	CHANNELS 6 Xposition Yposition Zposition Xrotation Yrotation Zrotation
	JOINT LeftUpLeg_virtual
	{
		OFFSET 0.000000 0.000000 0.000000
		CHANNELS 3 Xrotation Yrotation Zrotation
		JOINT LeftUpLeg
		{
			OFFSET 13.026900 -6.336304 -1.092800
			CHANNELS 3 Xrotation Yrotation Zrotation
			JOINT LeftLeg
			{
				OFFSET 0.524474 -46.096886 9.782700
				CHANNELS 3 Xrotation Yrotation Zrotation
				JOINT LeftFoot
				{
					OFFSET -0.524474 -53.427422 -12.948200
					CHANNELS 3 Xrotation Yrotation Zrotation
					JOINT LeftToeBase
					{
						OFFSET 0.192200 -14.009700 16.364100
						CHANNELS 3 Xrotation Yrotation Zrotation
						JOINT LeftToe_End
						{
							OFFSET -1.784700 -0.561700 9.474800
							CHANNELS 3 Xrotation Yrotation Zrotation
							End Site
							{
								OFFSET 0 0 0
							}
						}
					}
				}
			}
		}
	}
	JOINT RightUpLeg_virtual
	{
		OFFSET 0.000000 0.000000 0.000000
		CHANNELS 3 Xrotation Yrotation Zrotation
		JOINT RightUpLeg
		{
			OFFSET -12.883000 -6.336304 -1.092800
			CHANNELS 3 Xrotation Yrotation Zrotation
			JOINT RightLeg
			{
				OFFSET -0.524587 -46.096825 9.782800
				CHANNELS 3 Xrotation Yrotation Zrotation
				JOINT RightFoot
				{
					OFFSET 0.524587 -53.427383 -12.948300
					CHANNELS 3 Xrotation Yrotation Zrotation
					JOINT RightToeBase
					{
						OFFSET -0.192200 -14.009700 16.364100
						CHANNELS 3 Xrotation Yrotation Zrotation
						JOINT RightToe_End
						{
							OFFSET 1.784700 -0.561700 9.474800
							CHANNELS 3 Xrotation Yrotation Zrotation
							End Site
							{
								OFFSET 0 0 0
							}
						}
					}
				}
			}
		}
	}
	JOINT Spine_virtual
	{
		OFFSET 0.000000 0.000000 0.000000
		CHANNELS 3 Xrotation Yrotation Zrotation
		JOINT Spine
		{
			OFFSET 0.072000 7.257294 -0.789700
			CHANNELS 3 Xrotation Yrotation Zrotation
			JOINT Spine1
			{
				OFFSET 0.000000 12.508769 -0.658067
				CHANNELS 3 Xrotation Yrotation Zrotation
				JOINT Spine1_split
				{
					OFFSET 0.000000 12.508769 -0.658067
					CHANNELS 3 Xrotation Yrotation Zrotation
					JOINT Spine2
					{
						OFFSET 0.000000 12.508769 -0.658067
						CHANNELS 3 Xrotation Yrotation Zrotation
						JOINT Neck_virtual
						{
							OFFSET 0.000000 0.000000 0.000000
							CHANNELS 3 Xrotation Yrotation Zrotation
							JOINT Neck
							{
								OFFSET 0.000000 14.033295 7.520400
								CHANNELS 3 Xrotation Yrotation Zrotation
								JOINT Head
								{
									OFFSET 0.000000 8.198502 5.703100
									CHANNELS 3 Xrotation Yrotation Zrotation
									JOINT HeadTop_End
									{
										OFFSET 0.000000 17.760803 13.332701
										CHANNELS 3 Xrotation Yrotation Zrotation
										End Site
										{
											OFFSET 0 0 0
										}
									}
								}
							}
						}
						JOINT LeftShoulder_virtual
						{
							OFFSET 0.000000 0.000000 0.000000
							CHANNELS 3 Xrotation Yrotation Zrotation
							JOINT LeftShoulder
							{
								OFFSET 6.292450 5.785301 -0.669000
								CHANNELS 3 Xrotation Yrotation Zrotation
								JOINT LeftShoulder_split
								{
									OFFSET 6.292450 5.785301 -0.669000
									CHANNELS 3 Xrotation Yrotation Zrotation
									JOINT LeftArm
									{
										OFFSET 13.907140 -6.093903 1.965100
										CHANNELS 3 Xrotation Yrotation Zrotation
										JOINT LeftForeArm
										{
											OFFSET 34.140198 0.000000 0.000000
											CHANNELS 3 Xrotation Yrotation Zrotation
											JOINT LeftHand
											{
												OFFSET 40.960209 0.000000 0.000000
												CHANNELS 3 Xrotation Yrotation Zrotation
												End Site
												{
													OFFSET 0 0 0
												}
											}
										}
									}
								}
							}
						}
						JOINT RightShoulder_virtual
						{
							OFFSET 0.000000 0.000000 0.000000
							CHANNELS 3 Xrotation Yrotation Zrotation
							JOINT RightShoulder
							{
								OFFSET -6.292450 5.785301 -0.669000
								CHANNELS 3 Xrotation Yrotation Zrotation
								JOINT RightShoulder_split
								{
									OFFSET -6.292450 5.785301 -0.669000
									CHANNELS 3 Xrotation Yrotation Zrotation
									JOINT RightArm
									{
										OFFSET -13.907140 -6.093903 1.965100
										CHANNELS 3 Xrotation Yrotation Zrotation
										JOINT RightForeArm
										{
											OFFSET -34.140198 0.000000 0.000000
											CHANNELS 3 Xrotation Yrotation Zrotation
											JOINT RightHand
											{
												OFFSET -40.960209 0.000000 0.000000
												CHANNELS 3 Xrotation Yrotation Zrotation
												End Site
												{
													OFFSET 0 0 0
												}
											}
										}
									}
								}
							}
						}
					}
				}
			}
		}
	}
}
MOTION
Frames: 6
Frame Time: 0.03333333
7.215899 62.800930 -26.443348 0.000000 0.000000 0.000000 32.560195 13.017418 0.754817 -93.687444 -5.710503 18.640250 97.340680 -2.225700 -1.504558 -5.919134 -0.091556 -13.922943 -14.423830 -3.393525 -5.981992 0.000000 0.000000 0.000000 33.149654 9.835292 1.760209 -89.882592 -6.778063 -14.832871 112.715108 10.290472 -6.226614 -26.336378 -16.559186 -8.106003 -13.100607 3.893327 -12.236978 0.000000 0.000000 0.000000 36.983603 9.685446 0.992003 9.820290 -0.061626 0.480736 19.482358 -3.508339 -3.927396 0.356322 -0.032738 -0.020995 0.000000 0.000000 0.000000 20.355752 -2.781732 -3.578778 -21.123337 9.829118 5.149092 -28.467737 27.006739 24.295157 0.000000 0.000000 0.000000 18.563872 -3.195209 -5.116165 3.543911 0.131638 4.229762 10.868211 -4.542288 2.635630 -34.533433 -24.974199 -27.124904 -31.295425 -78.730580 -36.122016 0.000000 0.000000 0.000000 21.788143 -2.699293 -4.121340 10.484007 29.391711 1.302791 2.235588 2.325518 3.602775 -43.014728 12.470758 30.762998 -31.508489 53.396448 13.999587 0.000000 0.000000 0.000000 
6.722050 57.775017 -26.782757 0.000000 0.000000 0.000000 35.002308 16.615475 -0.237894 -88.195651 -8.199365 23.186742 102.411146 -4.818247 -1.682579 -16.553284 3.359779 -15.253962 -14.903789 -3.149776 -7.975836 0.000000 0.000000 0.000000 34.887544 12.558996 1.192208 -98.982780 -0.146273 -15.314432 118.092345 8.296182 -3.660282 -22.216947 -20.218869 -5.071290 -14.320515 4.174154 -10.725916 0.000000 0.000000 0.000000 40.025513 12.523138 0.425351 9.148075 -0.341789 -0.537212 17.617187 -3.163182 -3.154795 0.296000 -0.042595 0.053402 0.000000 0.000000 0.000000 18.460396 -2.516004 -2.910770 -17.162626 9.800370 2.855682 -28.145394 20.902756 26.191380 0.000000 0.000000 0.000000 16.630734 -2.943666 -4.285797 3.356723 -0.167555 3.713855 9.899908 -3.962921 1.546442 -33.332928 -31.509165 -25.977549 -36.487810 -78.567270 -41.983571 0.000000 0.000000 0.000000 19.949135 -2.580564 -3.450182 10.347119 30.466151 3.286395 2.200037 1.894947 3.855947 -44.893167 16.815719 31.124496 -28.128517 50.333334 11.139709 0.000000 0.000000 0.000000 
6.034691 53.868267 -26.884380 0.000000 0.000000 0.000000 37.302255 19.797063 -1.510241 -82.789754 -10.210238 27.572449 104.652568 -8.428541 -0.469792 -23.934866 5.397177 -19.184967 -14.391555 -3.285284 -8.571632 0.000000 0.000000 0.000000 36.680114 15.013500 0.318848 -105.450997 5.333605 -14.455332 121.928671 6.816558 -1.114930 -18.241077 -22.696947 -1.910925 -16.148027 4.587772 -9.698910 0.000000 0.000000 0.000000 42.783318 15.149243 -0.399768 8.488288 -0.617949 -1.522428 15.601974 -2.801428 -2.142206 0.183541 -0.056369 0.137489 0.000000 0.000000 0.000000 16.417336 -2.139381 -2.094707 -13.619629 9.324765 0.721778 -27.650271 14.324018 27.642834 0.000000 0.000000 0.000000 14.659859 -2.607962 -3.233462 3.251906 -0.386491 2.839743 8.467692 -3.187051 -0.322034 -30.882174 -37.181211 -26.215967 -34.643949 -76.711630 -40.566819 0.000000 0.000000 0.000000 18.000040 -2.352175 -2.571729 10.152790 30.461114 5.090828 2.159442 1.579111 4.391578 -45.978078 19.548929 32.375435 -25.436232 47.865730 8.933279 0.000000 0.000000 0.000000 
5.337569 51.179626 -26.774128 0.000000 0.000000 0.000000 39.460346 22.061608 -2.859146 -78.825540 -11.941085 31.329866 105.289053 -11.926417 1.344696 -27.427253 5.943079 -23.789822 -15.084606 -3.744550 -7.889806 0.000000 0.000000 0.000000 38.554867 16.671660 -0.708015 -109.317990 9.006718 -12.947800 124.302025 5.627868 1.335628 -15.994391 -24.055040 0.294087 -17.934549 5.040454 -9.211670 0.000000 0.000000 0.000000 45.304269 16.942423 -1.232563 7.937740 -0.752250 -2.197857 13.758749 -2.475899 -1.073386 0.092932 -0.175700 0.221778 0.000000 0.000000 0.000000 14.560102 -1.744788 -1.226423 -10.830401 8.608149 -1.211685 -27.384411 8.158139 28.345785 0.000000 0.000000 0.000000 12.970370 -2.280630 -2.149005 3.222577 -0.503348 1.680746 6.773403 -2.130336 -2.516945 -27.552734 -41.612835 -26.949348 -29.721964 -73.713737 -35.754992 0.000000 0.000000 0.000000 16.255348 -2.062530 -1.612436 10.044482 29.536344 6.352167 1.949267 1.239101 5.232508 -45.787023 20.727833 33.670299 -23.502430 45.889401 7.303333 0.000000 0.000000 0.000000 
4.754707 49.580673 -26.186749 0.000000 0.000000 0.000000 41.311545 23.127294 -3.988974 -77.140238 -13.550284 33.871557 105.929363 -14.068705 2.805527 -28.069783 5.364634 -26.910390 -15.864093 -4.313873 -7.457566 0.000000 0.000000 0.000000 40.504005 17.047375 -1.455273 -110.630794 10.643018 -11.284967 125.485151 4.473048 3.670928 -16.404631 -24.580316 0.372669 -18.944235 5.444660 -9.212789 0.000000 0.000000 0.000000 47.385960 17.885214 -1.948259 7.493496 -0.642830 -2.370922 12.331753 -2.221705 -0.123598 0.016946 -0.333561 0.252247 0.000000 0.000000 0.000000 13.118568 -1.414127 -0.480198 -8.820695 7.692255 -2.887957 -27.625190 3.391695 28.118673 0.000000 0.000000 0.000000 11.760558 -2.017829 -1.183008 3.252264 -0.428433 0.366767 5.090698 -1.166549 -4.497872 -24.020512 -44.920655 -27.448399 -24.799707 -70.328204 -30.604978 0.000000 0.000000 0.000000 14.907858 -1.755115 -0.729707 10.099805 27.804245 6.891404 1.944928 1.347344 6.071128 -44.365388 20.716165 34.328807 -22.445433 44.284570 6.242694 0.000000 0.000000 0.000000 
4.344033 48.852886 -25.635128 0.000000 0.000000 0.000000 42.551761 23.012470 -4.582560 -77.751909 -14.950417 34.965043 106.860229 -14.660784 3.792080 -27.469559 4.227226 -28.246729 -16.403656 -4.729217 -7.895413 0.000000 0.000000 0.000000 42.148691 16.181350 -1.629724 -110.013283 10.739906 -9.708858 125.883651 3.355840 5.802774 -18.492256 -24.566821 -1.172830 -19.183606 5.753263 -9.649688 0.000000 0.000000 0.000000 48.839234 17.995515 -2.452505 7.202814 -0.313560 -2.085377 11.407370 -2.046139 0.534562 -0.031061 -0.492460 0.232979 0.000000 0.000000 0.000000 12.199744 -1.181010 -0.011572 -7.527781 6.671357 -4.211970 -28.229807 0.707589 27.126906 0.000000 0.000000 0.000000 11.082255 -1.852339 -0.504334 3.318117 -0.139979 -0.874816 3.613055 -0.267708 -5.831802 -20.902479 -47.340362 -27.342890 -21.045073 -67.447462 -26.282455 0.000000 0.000000 0.000000 14.064519 -1.473613 -0.078566 10.275631 25.683210 6.784518 1.990661 1.982047 6.673039 -42.149429 20.110893 34.191985 -22.254812 43.058011 5.782118 0.000000 0.000000 0.000000 
